<svg xmlns="http://www.w3.org/2000/svg" width="100" height="100" viewBox="0 0 256 256"><g fill="none" stroke-miterlimit="10" font-family="none" font-size="none" font-weight="none" style="mix-blend-mode:normal" text-anchor="none"><path fill="#0288d1" d="M244 211.777c0 17.8-14.424 32.222-32.223 32.222H44.222C26.429 244 12 229.576 12 211.777V44.222C12 26.422 26.429 12 44.222 12h167.555c17.8 0 32.222 14.422 32.222 32.222z"/><path fill="#fff" d="M50.666 95.777H82.89v109.556H50.666zM66.681 82.89h-.18c-9.616 0-15.835-7.167-15.835-16.118 0-9.145 6.413-16.105 16.202-16.105 9.802 0 15.84 6.96 16.02 16.105 0 8.945-6.218 16.118-16.207 16.118zm138.652 122.444H173.11v-58.638c0-14.165-7.894-23.832-20.57-23.832-9.673 0-14.906 6.522-17.445 12.825-.928 2.255-.651 8.493-.651 11.645v58h-32.222V95.777h32.222v16.859c4.646-7.192 11.922-16.859 30.534-16.859 23.058 0 40.348 14.5 40.348 46.877l.007 62.679z"/></g></svg>